<svg version="1.1" id="Layer_1" xmlns="http://www.w3.org/2000/svg" xmlns:xlink="http://www.w3.org/1999/xlink" x="0px" y="0px"
	 width="100%" viewBox="0 0 500 500" enable-background="new 0 0 500 500" xml:space="preserve">
<path fill="#000101" opacity="1.000000" stroke="none" 
	d="
M281.000000,501.000000 
	C187.333359,501.000000 94.166710,501.000000 1.000050,501.000000 
	C1.000033,334.333405 1.000033,167.666794 1.000017,1.000139 
	C167.666565,1.000093 334.333130,1.000093 500.999756,1.000046 
	C500.999847,167.666519 500.999847,334.333038 500.999939,500.999786 
	C427.833344,501.000000 354.666656,501.000000 281.000000,501.000000 
M465.183746,375.217926 
	C462.809357,353.039093 459.349915,330.908997 458.351654,308.668396 
	C457.251465,284.157562 453.756226,260.041870 450.540649,235.815979 
	C447.563049,213.382797 443.921661,190.880829 443.279968,168.332092 
	C442.367523,136.269775 436.679321,105.184502 429.274506,74.230148 
	C428.945343,72.854073 428.412384,71.200882 427.404053,70.363594 
	C417.451111,62.098900 406.046692,58.081944 393.129364,60.286957 
	C390.004120,60.820435 386.423553,62.892204 384.464294,65.372108 
	C371.147003,82.228539 358.101868,99.303886 345.174591,116.463547 
	C330.745087,135.617264 315.672729,154.368927 302.515442,174.371246 
	C292.994720,188.845093 282.439209,202.085068 270.071808,214.044266 
	C262.316528,221.543579 254.586319,229.068848 246.585739,236.833954 
	C245.450577,234.737900 244.552246,233.159775 243.727219,231.544189 
	C208.662338,162.879822 167.817154,97.812111 121.820602,35.968475 
	C120.182228,33.765636 117.355644,31.674253 114.740326,31.105261 
	C103.961433,28.760191 93.222984,29.298063 82.917313,33.646221 
	C79.106789,35.253952 76.546822,37.663490 75.786972,42.320705 
	C71.100266,71.046349 65.235176,99.607582 61.460201,128.445801 
	C58.116058,153.992783 57.019127,179.832123 54.845463,205.535233 
	C54.172421,213.493820 53.523628,221.474411 52.333836,229.365036 
	C50.076916,244.332718 46.676506,259.166107 45.162685,274.197388 
	C43.529842,290.410522 43.728790,306.799896 42.709797,323.086182 
	C42.119602,332.519104 40.952438,341.936554 39.591434,351.295013 
	C38.184673,360.968109 35.170227,370.513702 34.734379,380.199463 
	C33.837246,400.136261 33.734222,420.139893 34.200256,440.095093 
	C34.476990,451.944366 39.321411,457.163940 49.184052,458.771362 
	C53.764473,459.517853 58.501698,460.030609 63.109890,459.737671 
	C75.455750,458.952789 83.366959,454.261749 84.419273,440.422668 
	C86.665924,410.876526 90.253693,381.434387 92.698555,351.900543 
	C94.249229,333.168518 94.693512,314.346008 95.711487,295.568237 
	C96.116753,288.092804 96.304199,280.570038 97.321526,273.169250 
	C102.760483,233.601929 108.404495,194.062637 114.039986,154.522552 
	C115.331581,145.460434 116.868729,136.433334 118.465683,126.292725 
	C120.463120,129.228851 121.850388,131.085907 123.049232,133.057495 
	C142.674088,165.332123 162.027756,197.775101 181.979126,229.846313 
	C193.037628,247.622528 204.686783,265.068085 216.852234,282.103851 
	C223.225754,291.028961 232.220093,297.510986 243.427689,299.490021 
	C249.099899,300.491577 255.283783,303.493927 260.641083,298.716156 
	C278.821930,282.502045 296.566315,265.875458 309.162323,244.629456 
	C310.078857,243.083496 311.497192,241.825989 312.729797,240.477859 
	C326.998718,224.872116 341.895569,209.786865 355.360962,193.516693 
	C366.588379,179.950714 376.134583,164.993942 386.444733,150.667038 
	C387.239319,149.562866 388.186737,148.568665 389.585449,146.900330 
	C390.109802,153.486465 390.455475,159.101334 391.019165,164.694229 
	C393.823822,192.521988 396.674438,220.345123 399.531494,248.167557 
	C401.605896,268.368286 404.726318,288.521942 405.596588,308.773224 
	C407.344543,349.448242 411.539917,389.780090 418.953278,429.790558 
	C419.270508,431.502625 420.038513,433.279022 421.061218,434.688141 
	C426.858826,442.676300 435.593781,442.890411 444.084747,442.429047 
	C459.361816,441.599030 467.500549,433.909912 467.768280,418.346497 
	C468.010193,404.282288 466.215179,390.183014 465.183746,375.217926 
M93.154770,441.328491 
	C92.459785,444.738800 91.606468,448.126160 91.107964,451.564941 
	C90.408691,456.388702 93.713387,460.375061 98.514259,460.818909 
	C103.083580,461.241364 106.189972,458.673889 106.833855,454.021637 
	C108.162537,444.421417 109.524925,434.825836 110.771797,425.951874 
	C121.220612,424.571045 130.880173,423.136993 140.586945,422.184296 
	C142.015594,422.044098 144.417435,423.846039 145.092957,425.330170 
	C148.821991,433.522766 147.709198,443.002228 152.248337,451.213501 
	C154.545547,455.369171 159.500153,459.997070 164.037766,458.615967 
	C164.944016,458.340149 165.873795,456.462860 165.898895,455.304657 
	C165.959488,452.507385 165.448624,449.701813 165.245895,446.893951 
	C164.772064,440.331604 165.103287,433.606567 163.764999,427.229370 
	C158.165253,400.545349 152.104172,373.957642 146.143524,347.350037 
	C142.785980,332.362396 139.452530,317.365448 135.745270,302.462982 
	C134.891449,299.030731 132.903366,295.163330 128.504211,295.303406 
	C125.343063,295.404022 121.358948,294.931183 120.198967,299.764130 
	C117.226784,312.147430 113.698380,324.404541 110.997787,336.843536 
	C108.606850,347.856201 107.281281,359.097076 105.018639,370.141602 
	C103.124443,379.387634 99.892914,388.391907 98.440277,397.688629 
	C96.223656,411.874725 95.030334,426.220734 93.154770,441.328491 
M341.131653,345.294922 
	C340.700836,352.904358 340.207581,360.510925 339.852386,368.123871 
	C339.153107,383.111359 338.458862,398.099823 337.902496,413.093048 
	C337.556213,422.424286 337.704468,431.778564 337.174866,441.096588 
	C336.843658,446.924500 340.198334,450.910370 345.902954,452.256470 
	C355.545319,454.531738 364.973877,452.145050 374.487305,451.922729 
	C380.235992,451.788361 385.095825,450.073700 389.127991,445.057007 
	C395.419037,437.229858 397.600403,428.005371 398.597473,418.770599 
	C399.935913,406.374176 400.308167,393.740417 399.607147,381.292389 
	C398.830902,367.507721 395.050995,354.513000 382.207611,346.346802 
	C380.886200,345.506653 380.164978,343.775269 378.960358,342.683533 
	C377.806458,341.637787 376.465210,340.300934 375.067871,340.111145 
	C370.024933,339.426208 364.737701,339.874481 359.886902,338.592468 
	C352.160675,336.550507 347.171997,341.274445 341.131653,345.294922 
M321.322845,305.214935 
	C319.780640,305.018250 318.208618,304.947205 316.704437,304.590240 
	C315.130005,304.216644 313.629852,303.141968 312.081604,303.109070 
	C301.928955,302.893494 291.771454,302.784821 281.616943,302.851868 
	C278.588745,302.871826 276.156769,304.035583 276.042725,307.837280 
	C275.819305,315.287476 275.389160,322.731506 275.041870,330.177948 
	C274.765472,336.104370 274.117706,342.041992 274.301666,347.953888 
	C274.518921,354.934601 275.870636,361.887024 275.971100,368.862640 
	C276.095062,377.470154 275.479736,386.090729 275.106079,394.702301 
	C274.619965,405.906281 274.261078,417.121704 273.449280,428.303284 
	C272.981842,434.741699 275.414185,440.350159 277.813446,445.852936 
	C281.066498,453.313873 288.636871,451.238220 294.453674,451.460785 
	C300.405334,451.688507 306.454773,449.976868 312.424774,448.909149 
	C316.975006,448.095367 321.472748,446.982635 325.984711,445.962494 
	C329.179657,445.240143 329.468170,442.511658 327.333649,441.404541 
	C321.757233,438.512329 316.158844,435.220856 309.319885,435.996826 
	C303.925873,436.608856 298.478638,436.834442 293.048584,436.967285 
	C292.109375,436.990265 290.423767,435.802551 290.301300,434.990356 
	C289.672241,430.818024 288.916016,426.553375 289.172882,422.380554 
	C289.852631,411.338531 291.084686,400.331604 291.994141,389.302216 
	C292.724701,380.442169 292.657928,380.436035 301.561951,379.879120 
	C301.893829,379.858368 302.236755,379.923126 302.559814,379.865509 
	C308.240265,378.851807 313.950531,377.963989 319.564972,376.663208 
	C320.489166,376.449066 320.990479,374.409851 321.687225,373.214111 
	C317.302246,370.882660 313.137299,367.666534 308.461700,366.503540 
	C304.809845,365.595184 300.506683,367.129181 296.524261,367.771912 
	C291.882690,368.521118 290.810089,367.436707 291.206970,362.860016 
	C291.687286,357.321350 292.036804,351.747711 291.993011,346.192749 
	C291.926483,337.753113 291.535126,329.313751 291.157562,320.879791 
	C290.964874,316.576111 292.894287,315.006561 297.112366,314.917908 
	C303.667938,314.780121 310.216705,314.204620 316.761993,313.727295 
	C321.875275,313.354431 323.443726,310.842529 321.322845,305.214935 
M194.062408,427.593811 
	C193.695786,417.385590 192.989487,407.175690 193.039474,396.969513 
	C193.121277,380.269989 193.829605,363.574127 193.992416,346.873993 
	C194.053635,340.594208 193.001770,334.304626 193.043732,328.023407 
	C193.104736,318.889771 193.786407,309.762024 194.026947,300.627167 
	C194.161591,295.514069 191.054138,292.494537 185.789383,292.163727 
	C182.870117,291.980255 179.555557,295.930054 179.347168,300.241730 
	C178.578873,316.137756 177.915390,332.038879 177.213318,347.938110 
	C177.132523,349.767761 177.005783,351.597076 176.987122,353.427460 
	C176.884201,363.523407 176.778183,373.619507 176.736481,383.715820 
	C176.717575,388.295441 176.922623,392.876312 176.886765,397.455505 
	C176.834213,404.166382 176.628006,410.875854 176.539078,417.586609 
	C176.413208,427.086517 176.698441,436.608643 176.137589,446.081573 
	C175.526031,456.410767 177.260696,460.327637 187.805740,461.554169 
	C189.451508,461.745605 192.926849,458.982849 193.050323,457.391663 
	C193.793396,447.815735 193.805573,438.183075 194.062408,427.593811 
M227.011047,365.176544 
	C226.814575,364.198425 226.915680,362.980347 226.360291,362.291656 
	C225.167496,360.812531 223.636276,359.606323 222.243576,358.288391 
	C221.232300,359.963837 219.316528,361.693451 219.412888,363.302551 
	C219.574295,365.998260 220.701157,368.784058 221.989029,371.233673 
	C224.685516,376.362610 227.751190,381.297424 230.554504,386.121399 
	C226.040192,392.445129 221.463898,398.560211 217.305832,404.947571 
	C216.540390,406.123383 217.469650,408.402435 217.616699,410.172241 
	C219.361191,409.857513 221.401489,409.995911 222.768631,409.103210 
	C224.193024,408.173218 224.953186,406.237823 226.029663,404.760864 
	C229.112701,400.530823 232.208862,396.310333 235.173340,392.259003 
	C241.067719,397.898682 246.499512,403.004425 251.814178,408.229340 
	C253.720734,410.103729 255.560959,411.962036 258.097992,409.550049 
	C260.692993,407.082886 258.846619,405.213928 256.961975,403.301788 
	C251.522690,397.783417 246.183762,392.166107 239.942459,385.692566 
	C245.552658,380.431702 250.871368,375.666962 255.866241,370.583954 
	C256.944489,369.486694 256.856171,367.243103 257.305206,365.527557 
	C255.364304,365.328461 253.119354,364.428528 251.558578,365.105621 
	C249.557343,365.973785 248.049133,368.054596 246.430252,369.712250 
	C243.008835,373.215607 239.653488,376.783508 235.763779,380.856049 
	C232.638443,375.377625 229.938644,370.645172 227.011047,365.176544 
z"/>
<path fill="#1DCC9E" opacity="1.000000" stroke="none" 
	d="
M465.251038,375.658569 
	C466.215179,390.183014 468.010193,404.282288 467.768280,418.346497 
	C467.500549,433.909912 459.361816,441.599030 444.084747,442.429047 
	C435.593781,442.890411 426.858826,442.676300 421.061218,434.688141 
	C420.038513,433.279022 419.270508,431.502625 418.953278,429.790558 
	C411.539917,389.780090 407.344543,349.448242 405.596588,308.773224 
	C404.726318,288.521942 401.605896,268.368286 399.531494,248.167557 
	C396.674438,220.345123 393.823822,192.521988 391.019165,164.694229 
	C390.455475,159.101334 390.109802,153.486465 389.585449,146.900330 
	C388.186737,148.568665 387.239319,149.562866 386.444733,150.667038 
	C376.134583,164.993942 366.588379,179.950714 355.360962,193.516693 
	C341.895569,209.786865 326.998718,224.872116 312.729797,240.477859 
	C311.497192,241.825989 310.078857,243.083496 309.162323,244.629456 
	C296.566315,265.875458 278.821930,282.502045 260.641083,298.716156 
	C255.283783,303.493927 249.099899,300.491577 243.427689,299.490021 
	C232.220093,297.510986 223.225754,291.028961 216.852234,282.103851 
	C204.686783,265.068085 193.037628,247.622528 181.979126,229.846313 
	C162.027756,197.775101 142.674088,165.332123 123.049232,133.057495 
	C121.850388,131.085907 120.463120,129.228851 118.465683,126.292725 
	C116.868729,136.433334 115.331581,145.460434 114.039986,154.522552 
	C108.404495,194.062637 102.760483,233.601929 97.321526,273.169250 
	C96.304199,280.570038 96.116753,288.092804 95.711487,295.568237 
	C94.693512,314.346008 94.249229,333.168518 92.698555,351.900543 
	C90.253693,381.434387 86.665924,410.876526 84.419273,440.422668 
	C83.366959,454.261749 75.455750,458.952789 63.109890,459.737671 
	C58.501698,460.030609 53.764473,459.517853 49.184052,458.771362 
	C39.321411,457.163940 34.476990,451.944366 34.200256,440.095093 
	C33.734222,420.139893 33.837246,400.136261 34.734379,380.199463 
	C35.170227,370.513702 38.184673,360.968109 39.591434,351.295013 
	C40.952438,341.936554 42.119602,332.519104 42.709797,323.086182 
	C43.728790,306.799896 43.529842,290.410522 45.162685,274.197388 
	C46.676506,259.166107 50.076916,244.332718 52.333836,229.365036 
	C53.523628,221.474411 54.172421,213.493820 54.845463,205.535233 
	C57.019127,179.832123 58.116058,153.992783 61.460201,128.445801 
	C65.235176,99.607582 71.100266,71.046349 75.786972,42.320705 
	C76.546822,37.663490 79.106789,35.253952 82.917313,33.646221 
	C93.222984,29.298063 103.961433,28.760191 114.740326,31.105261 
	C117.355644,31.674253 120.182228,33.765636 121.820602,35.968475 
	C167.817154,97.812111 208.662338,162.879822 243.727219,231.544189 
	C244.552246,233.159775 245.450577,234.737900 246.585739,236.833954 
	C254.586319,229.068848 262.316528,221.543579 270.071808,214.044266 
	C282.439209,202.085068 292.994720,188.845093 302.515442,174.371246 
	C315.672729,154.368927 330.745087,135.617264 345.174591,116.463547 
	C358.101868,99.303886 371.147003,82.228539 384.464294,65.372108 
	C386.423553,62.892204 390.004120,60.820435 393.129364,60.286957 
	C406.046692,58.081944 417.451111,62.098900 427.404053,70.363594 
	C428.412384,71.200882 428.945343,72.854073 429.274506,74.230148 
	C436.679321,105.184502 442.367523,136.269775 443.279968,168.332092 
	C443.921661,190.880829 447.563049,213.382797 450.540649,235.815979 
	C453.756226,260.041870 457.251465,284.157562 458.351654,308.668396 
	C459.349915,330.908997 462.809357,353.039093 465.251038,375.658569 
z"/>
<path fill="#FBFBFB" opacity="1.000000" stroke="none" 
	d="
M93.278648,440.913666 
	C95.030334,426.220734 96.223656,411.874725 98.440277,397.688629 
	C99.892914,388.391907 103.124443,379.387634 105.018639,370.141602 
	C107.281281,359.097076 108.606850,347.856201 110.997787,336.843536 
	C113.698380,324.404541 117.226784,312.147430 120.198967,299.764130 
	C121.358948,294.931183 125.343063,295.404022 128.504211,295.303406 
	C132.903366,295.163330 134.891449,299.030731 135.745270,302.462982 
	C139.452530,317.365448 142.785980,332.362396 146.143524,347.350037 
	C152.104172,373.957642 158.165253,400.545349 163.764999,427.229370 
	C165.103287,433.606567 164.772064,440.331604 165.245895,446.893951 
	C165.448624,449.701813 165.959488,452.507385 165.898895,455.304657 
	C165.873795,456.462860 164.944016,458.340149 164.037766,458.615967 
	C159.500153,459.997070 154.545547,455.369171 152.248337,451.213501 
	C147.709198,443.002228 148.821991,433.522766 145.092957,425.330170 
	C144.417435,423.846039 142.015594,422.044098 140.586945,422.184296 
	C130.880173,423.136993 121.220612,424.571045 110.771797,425.951874 
	C109.524925,434.825836 108.162537,444.421417 106.833855,454.021637 
	C106.189972,458.673889 103.083580,461.241364 98.514259,460.818909 
	C93.713387,460.375061 90.408691,456.388702 91.107964,451.564941 
	C91.606468,448.126160 92.459785,444.738800 93.278648,440.913666 
M122.218353,367.669678 
	C119.405724,381.231934 116.593094,394.794189 113.746338,408.521027 
	C119.599213,409.676422 124.127159,410.668976 128.691040,411.452118 
	C140.813934,413.532288 142.988129,411.191437 139.711685,399.579620 
	C138.056458,393.713348 135.824844,387.980103 134.581543,382.034576 
	C132.956284,374.262634 132.181976,366.316650 130.779770,358.492462 
	C130.114777,354.781830 128.842682,351.179993 127.845619,347.528870 
	C127.338036,347.522522 126.830460,347.516174 126.322876,347.509857 
	C125.051971,353.964874 123.781075,360.419891 122.218353,367.669678 
z"/>
<path fill="#FBFBFB" opacity="1.000000" stroke="none" 
	d="
M341.300415,344.919800 
	C347.171997,341.274445 352.160675,336.550507 359.886902,338.592468 
	C364.737701,339.874481 370.024933,339.426208 375.067871,340.111145 
	C376.465210,340.300934 377.806458,341.637787 378.960358,342.683533 
	C380.164978,343.775269 380.886200,345.506653 382.207611,346.346802 
	C395.050995,354.513000 398.830902,367.507721 399.607147,381.292389 
	C400.308167,393.740417 399.935913,406.374176 398.597473,418.770599 
	C397.600403,428.005371 395.419037,437.229858 389.127991,445.057007 
	C385.095825,450.073700 380.235992,451.788361 374.487305,451.922729 
	C364.973877,452.145050 355.545319,454.531738 345.902954,452.256470 
	C340.198334,450.910370 336.843658,446.924500 337.174866,441.096588 
	C337.704468,431.778564 337.556213,422.424286 337.902496,413.093048 
	C338.458862,398.099823 339.153107,383.111359 339.852386,368.123871 
	C340.207581,360.510925 340.700836,352.904358 341.300415,344.919800 
M350.731812,422.990326 
	C350.731812,429.278839 350.731812,435.567383 350.731812,441.411499 
	C357.219604,440.940948 362.902740,440.994293 368.372253,439.939728 
	C371.195862,439.395325 373.790436,437.074921 376.200867,435.189301 
	C377.718384,434.002197 378.540466,431.963928 379.960297,430.606354 
	C383.141083,427.565155 384.030029,424.001038 383.328003,419.753937 
	C382.952942,417.484650 382.661163,415.065216 383.034088,412.830750 
	C385.431152,398.467560 385.420868,384.101929 383.838226,369.660980 
	C382.690521,359.188538 375.499207,351.980896 365.073303,351.432343 
	C362.987152,351.322601 360.854340,351.685028 358.803589,351.397736 
	C353.395355,350.640106 350.572083,353.209869 350.890015,358.566742 
	C351.498688,368.821991 352.385986,379.087524 352.357269,389.346497 
	C352.326691,400.257355 351.368500,411.165649 350.731812,422.990326 
z"/>
<path fill="#FBFBFB" opacity="1.000000" stroke="none" 
	d="
M321.629364,305.444702 
	C323.443726,310.842529 321.875275,313.354431 316.761993,313.727295 
	C310.216705,314.204620 303.667938,314.780121 297.112366,314.917908 
	C292.894287,315.006561 290.964874,316.576111 291.157562,320.879791 
	C291.535126,329.313751 291.926483,337.753113 291.993011,346.192749 
	C292.036804,351.747711 291.687286,357.321350 291.206970,362.860016 
	C290.810089,367.436707 291.882690,368.521118 296.524261,367.771912 
	C300.506683,367.129181 304.809845,365.595184 308.461700,366.503540 
	C313.137299,367.666534 317.302246,370.882660 321.687195,373.214111 
	C320.990479,374.409851 320.489166,376.449066 319.564972,376.663208 
	C313.950531,377.963989 308.240265,378.851807 302.559814,379.865509 
	C302.236755,379.923126 301.893829,379.858368 301.561951,379.879120 
	C292.657928,380.436035 292.724701,380.442169 291.994141,389.302216 
	C291.084686,400.331604 289.852631,411.338531 289.172882,422.380554 
	C288.916016,426.553375 289.672241,430.818024 290.301300,434.990356 
	C290.423767,435.802551 292.109375,436.990265 293.048584,436.967285 
	C298.478638,436.834442 303.925873,436.608856 309.319885,435.996826 
	C316.158844,435.220856 321.757233,438.512329 327.333649,441.404541 
	C329.468170,442.511658 329.179657,445.240143 325.984711,445.962494 
	C321.472748,446.982635 316.975006,448.095367 312.424774,448.909149 
	C306.454773,449.976868 300.405334,451.688507 294.453674,451.460785 
	C288.636871,451.238220 281.066498,453.313873 277.813446,445.852936 
	C275.414185,440.350159 272.981842,434.741699 273.449280,428.303284 
	C274.261078,417.121704 274.619965,405.906281 275.106079,394.702301 
	C275.479736,386.090729 276.095062,377.470154 275.971100,368.862640 
	C275.870636,361.887024 274.518921,354.934601 274.301666,347.953888 
	C274.117706,342.041992 274.765472,336.104370 275.041870,330.177948 
	C275.389160,322.731506 275.819305,315.287476 276.042725,307.837280 
	C276.156769,304.035583 278.588745,302.871826 281.616943,302.851868 
	C291.771454,302.784821 301.928955,302.893494 312.081604,303.109070 
	C313.629852,303.141968 315.130005,304.216644 316.704437,304.590240 
	C318.208618,304.947205 319.780640,305.018250 321.629364,305.444702 
z"/>
<path fill="#FBFBFB" opacity="1.000000" stroke="none" 
	d="
M194.062439,428.081604 
	C193.805573,438.183075 193.793396,447.815735 193.050323,457.391663 
	C192.926849,458.982849 189.451508,461.745605 187.805740,461.554169 
	C177.260696,460.327637 175.526031,456.410767 176.137589,446.081573 
	C176.698441,436.608643 176.413208,427.086517 176.539078,417.586609 
	C176.628006,410.875854 176.834213,404.166382 176.886765,397.455505 
	C176.922623,392.876312 176.717575,388.295441 176.736481,383.715820 
	C176.778183,373.619507 176.884201,363.523407 176.987122,353.427460 
	C177.005783,351.597076 177.132523,349.767761 177.213318,347.938110 
	C177.915390,332.038879 178.578873,316.137756 179.347168,300.241730 
	C179.555557,295.930054 182.870117,291.980255 185.789383,292.163727 
	C191.054138,292.494537 194.161591,295.514069 194.026947,300.627167 
	C193.786407,309.762024 193.104736,318.889771 193.043732,328.023407 
	C193.001770,334.304626 194.053635,340.594208 193.992416,346.873993 
	C193.829605,363.574127 193.121277,380.269989 193.039474,396.969513 
	C192.989487,407.175690 193.695786,417.385590 194.062439,428.081604 
z"/>
<path fill="#1CC79A" opacity="1.000000" stroke="none" 
	d="
M227.124939,365.544617 
	C229.938644,370.645172 232.638443,375.377625 235.763779,380.856049 
	C239.653488,376.783508 243.008835,373.215607 246.430252,369.712250 
	C248.049133,368.054596 249.557343,365.973785 251.558578,365.105621 
	C253.119354,364.428528 255.364304,365.328461 257.305206,365.527557 
	C256.856171,367.243103 256.944489,369.486694 255.866241,370.583954 
	C250.871368,375.666962 245.552658,380.431702 239.942459,385.692566 
	C246.183762,392.166107 251.522690,397.783417 256.961975,403.301788 
	C258.846619,405.213928 260.692993,407.082886 258.097992,409.550049 
	C255.560959,411.962036 253.720734,410.103729 251.814178,408.229340 
	C246.499512,403.004425 241.067719,397.898682 235.173340,392.259003 
	C232.208862,396.310333 229.112701,400.530823 226.029663,404.760864 
	C224.953186,406.237823 224.193024,408.173218 222.768631,409.103210 
	C221.401489,409.995911 219.361191,409.857513 217.616699,410.172241 
	C217.469650,408.402435 216.540390,406.123383 217.305832,404.947571 
	C221.463898,398.560211 226.040192,392.445129 230.554504,386.121399 
	C227.751190,381.297424 224.685516,376.362610 221.989029,371.233673 
	C220.701157,368.784058 219.574295,365.998260 219.412888,363.302551 
	C219.316528,361.693451 221.232300,359.963837 222.243591,358.288391 
	C223.636276,359.606323 225.167496,360.812531 226.360291,362.291656 
	C226.915680,362.980347 226.814575,364.198425 227.124939,365.544617 
z"/>
<path fill="#060606" opacity="1.000000" stroke="none" 
	d="
M122.364258,367.272278 
	C123.781075,360.419891 125.051971,353.964874 126.322876,347.509857 
	C126.830460,347.516174 127.338036,347.522522 127.845619,347.528870 
	C128.842682,351.179993 130.114777,354.781830 130.779770,358.492462 
	C132.181976,366.316650 132.956284,374.262634 134.581543,382.034576 
	C135.824844,387.980103 138.056458,393.713348 139.711685,399.579620 
	C142.988129,411.191437 140.813934,413.532288 128.691040,411.452118 
	C124.127159,410.668976 119.599213,409.676422 113.746338,408.521027 
	C116.593094,394.794189 119.405724,381.231934 122.364258,367.272278 
z"/>
<path fill="#030303" opacity="1.000000" stroke="none" 
	d="
M350.773590,422.532684 
	C351.368500,411.165649 352.326691,400.257355 352.357269,389.346497 
	C352.385986,379.087524 351.498688,368.821991 350.890015,358.566742 
	C350.572083,353.209869 353.395355,350.640106 358.803589,351.397736 
	C360.854340,351.685028 362.987152,351.322601 365.073303,351.432343 
	C375.499207,351.980896 382.690521,359.188538 383.838226,369.660980 
	C385.420868,384.101929 385.431152,398.467560 383.034088,412.830750 
	C382.661163,415.065216 382.952942,417.484650 383.328003,419.753937 
	C384.030029,424.001038 383.141083,427.565155 379.960297,430.606354 
	C378.540466,431.963928 377.718384,434.002197 376.200867,435.189301 
	C373.790436,437.074921 371.195862,439.395325 368.372253,439.939728 
	C362.902740,440.994293 357.219604,440.940948 350.731812,441.411499 
	C350.731812,435.567383 350.731812,429.278839 350.773590,422.532684 
z"/>
</svg>